# xmcd CD database file
#
# Track frame offsets:
#	150
#	16913
#	36272
#	59110
#	77196
#	93652
#	104311
#	128093
#	145799
#	167828
#	184675
#	202276
#
# Disc length: 2844 seconds
#
# Revision: 0
# Processed by: cddbd v1.5.2PL0 Copyright (c) Steve Scherf et al.
# Submitted via: CDex 1.82
#
DISCID=ad0b1a0c
DTITLE=JOHN MACNAMARA - Alone With The Blues
DYEAR=2014
DGENRE=Blues
TTITLE0=Innocence
TTITLE1=Blackwood
TTITLE2=Damn Your Eyes
TTITLE3=Looking Through My Window
TTITLE4=Please Don't Drive Me Away
TTITLE5=Burn Burn Burn
TTITLE6=Her Kiss Goodnight
TTITLE7=Losing Back My Mind
TTITLE8=These Damn Blues
TTITLE9=Lead Me On
TTITLE10=I'll Find Love
TTITLE11=How Far Am I From Canaan
EXTD=YEAR: 2014
EXTT0=
EXTT1=
EXTT2=
EXTT3=
EXTT4=
EXTT5=
EXTT6=
EXTT7=
EXTT8=
EXTT9=
EXTT10=
EXTT11=
PLAYORDER=
